# xmcd CD database file
# Copyright (C) 1993-1998 Ti Kan
# 
# Track frame offsets:
#     150
#     11184
#     26611
#     43331
#     56955
#     68688
#     84690
#     103942
#     120090
#     135077
#     146445
#     161528
#     175499
#     189218
#     203340
#     214142
#     226027
#     290782
#     300769
# 
# Disc length: 4240 seconds
# 
# Revision: 1
# Processed by: cddbd v1.4b41PL1 Copyright (c) Steve Scherf et al.
# Submitted via: DiscPlay 4.0.3
# 
DISCID=00108e13
DTITLE=Djordje Balasevic - Singl ploce
DYEAR=1900
DGENRE=
TTITLE0=Panonski mornar
TTITLE1=Zivot je more
TTITLE2=Moja draga sad je u Japanu
TTITLE3=Oprosti mi Katrin
TTITLE4=Srce mi je kao ratar
TTITLE5=Moja prva ljubav
TTITLE6=Triput sam video Tita
TTITLE7=Lagana stvar
TTITLE8=Racunajte na nas
TTITLE9=Kristofore, crni sine...
TTITLE10=U razdeljak te ljubim
TTITLE11=Marina
TTITLE12=Prvi januar (popodne)
TTITLE13=Hej, haj, bas nas brige
TTITLE14=Strasan zulj
TTITLE15=Zivot je jednosmjerna cesta
TTITLE16=Ljubio sam snasu na salasu
TTITLE17=Pile moje, pace moje malo
TTITLE18=Triput sam video Tita (instr.)
EXTD=
EXTT0=
EXTT1=
EXTT2=
EXTT3=
EXTT4=
EXTT5=
EXTT6=
EXTT7=
EXTT8=
EXTT9=
EXTT10=
EXTT11=
EXTT12=
EXTT13=
EXTT14=
EXTT15=
EXTT16=
EXTT17=
EXTT18=
PLAYORDER=
